# xmcd
#
# Track frame offsets:
# 150
# 12566
# 30203
# 47292
# 61072
# 75159
# 91084
# 106991
# 124532
# 146056
# 164782
# 177398
# 191750
# 206198
# 218259
#
# Disc length: 3094 seconds
#
#
# Revision: 2
# Processed by: cddbd v1.5.2PL0 Copyright (c) Steve Scherf et al.
# Submitted via: FreeRIP 2.945 
#
DISCID=bd0c140f
DTITLE=Kenny Rogers - Always and Forever CD 2
DYEAR=1999
DGENRE=Country
TTITLE0=It Had To Be You
TTITLE1=I Swear
TTITLE2=Stardust
TTITLE3=I Will Always Love You
TTITLE4=You Send Me
TTITLE5=Through The Years
TTITLE6=Unchained Melody
TTITLE7=Lady
TTITLE8=Always And Forever
TTITLE9=My Funny Valentine
TTITLE10=Somewhere My Love
TTITLE11=You Are So Beautiful
TTITLE12=You LightUp My Life
TTITLE13=Love Is A Many Splendored Thing
TTITLE14=Love Me Tender
EXTD=
EXTT0=
EXTT1=
EXTT2=
EXTT3=
EXTT4=
EXTT5=
EXTT6=
EXTT7=
EXTT8=
EXTT9=
EXTT10=
EXTT11=
EXTT12=
EXTT13=
EXTT14=
PLAYORDER=
